<?xml version="1.0" encoding="UTF-8" standalone="no"?>
<!-- Generator: Adobe Illustrator 16.0.0, SVG Export Plug-In . SVG Version: 6.00 Build 0)  -->

<svg
   xmlns:dc="http://purl.org/dc/elements/1.1/"
   xmlns:cc="http://creativecommons.org/ns#"
   xmlns:rdf="http://www.w3.org/1999/02/22-rdf-syntax-ns#"
   xmlns:svg="http://www.w3.org/2000/svg"
   xmlns="http://www.w3.org/2000/svg"
   xmlns:sodipodi="http://sodipodi.sourceforge.net/DTD/sodipodi-0.dtd"
   xmlns:inkscape="http://www.inkscape.org/namespaces/inkscape"
   version="1.1"
   id="v8_engine"
   x="0px"
   y="0px"
   width="857.292px"
   height="570.833px"
   viewBox="0 0 857.292 570.833"
   enable-background="new 0 0 857.292 570.833"
   xml:space="preserve"
   sodipodi:docname="v8 engine.svg"
   inkscape:version="0.92.0 r15299"><title
     id="title154">v8 engine</title><metadata
     id="metadata152"><rdf:RDF><cc:Work
         rdf:about=""><dc:format>image/svg+xml</dc:format><dc:type
           rdf:resource="http://purl.org/dc/dcmitype/StillImage" /><dc:title>v8 engine</dc:title><dc:date>8/6/2017</dc:date><dc:creator><cc:Agent><dc:title>cactus cowboy</dc:title></cc:Agent></dc:creator></cc:Work></rdf:RDF></metadata><defs
     id="defs150" /><sodipodi:namedview
     pagecolor="#ffffff"
     bordercolor="#666666"
     borderopacity="1"
     objecttolerance="10"
     gridtolerance="10"
     guidetolerance="10"
     inkscape:pageopacity="0"
     inkscape:pageshadow="2"
     inkscape:window-width="1920"
     inkscape:window-height="1052"
     id="namedview148"
     showgrid="false"
     inkscape:zoom="1"
     inkscape:cx="428.646"
     inkscape:cy="285.4165"
     inkscape:window-x="-9"
     inkscape:window-y="-9"
     inkscape:window-maximized="1"
     inkscape:current-layer="v8_engine" /><g
     id="engine_parts"><path
       fill="#FFFFFF"
       stroke="#000000"
       stroke-width="2.5"
       stroke-linecap="round"
       stroke-linejoin="round"
       d="M218.885,73.906   c6.53-5.988-14.652-16.489-19.035-19.67c-7.869-5.712-15.739-11.424-23.608-17.135c-2.128-1.545-8.77-8.284-11.732-7.914   c-3.366,0.421-6.461,3.768-9.081,5.651c-7.555,5.434-15.111,10.868-22.667,16.303c-8.205,5.901-22.13,10.616-18.613,21.664   c5.087,15.979,10.174,31.959,15.261,47.939c0.971,3.049-1.222,11.047,3.225,12.786c2.875,1.124,7.135-3.011,9.351-4.597   C167.619,110.592,193.252,92.249,218.885,73.906z"
       id="path10" /><path
       fill="#FF0000"
       stroke="#000000"
       stroke-width="3"
       stroke-linecap="round"
       stroke-linejoin="round"
       d="M398.135,561.781   c17.093,0.097,34.187,0.194,51.279,0.291c11.171,0.063,19.018,2.086,22.955-9.521c6.387-18.828,12.773-37.656,19.16-56.484   c2.425-7.147,6.367-32.472,14.435-34.37c3.965-0.933,18.992-2.037,19.509-6.288c0.789-6.497,0.954-13.392,2.592-19.738   c4.378-16.963,8.755-33.926,13.133-50.889s8.755-33.926,13.133-50.889c2.032-7.878,21.775-18.045,27.905-22.804   c15.025-11.666,30.051-23.331,45.076-34.996c6.529-5.07,2.011-30.958,2.011-38.654c0-9.422,0-18.845,0-28.267   c0-1.98,0-3.96,0-5.939c0-1.174,7.562-0.384,8.07-2.418c1.125-4.503,2.38-5.875-0.57-9.439c-2.124-2.567-2.451-2.208-1.375-4.943   c3.521-8.946,7.042-17.892,10.563-26.838c3.366-8.554,6.732-17.107,10.099-25.661c1.792-4.552,0.413-4.074-3.596-6.986   c-16.348-11.875-32.695-23.75-49.043-35.625c-7.572-5.5-18.951-19.563-28.02-14.491c-16.513,9.236-33.024,18.471-49.537,27.707   c-2.596,1.452-9.428-8.697-12.254-1.63c-1.089,2.72-1.475,7.545-4.708,7.577c-5.314,0.051-10.631,0.103-15.945,0.154   c-14.565,0.142-26.333-14.676-40.86-9.088c-4.838,1.861-12.786,0.292-17.872,0.292c-10.588,0-21.175,0-31.763,0   c-15.192,0-30.384,0-45.577,0c-5.63,0-11.851,0.964-17.192-0.99c-8.129-2.974-15.357,2.007-23.346,4.955   c-6.992,2.581-12.054,4.859-19.406,4.782c-2.366-0.025-9.552,1.201-11.542-0.122c-3.988-2.649-1.135-8.076-6.844-8.813   c-6.295-0.813-5.558,4.004-11.873,0.573c-9.129-4.959-18.257-9.918-27.386-14.877c-7.048-3.829-14.096-7.658-21.143-11.486   c-2.578-1.4-6.641,3.283-8.736,4.793c-16.965,12.235-33.931,24.47-50.897,36.705c-5.844,4.215-11.689,8.43-17.534,12.645   c-3.532,2.547-0.344,5.726,1.152,9.521c6.484,16.452,12.968,32.903,19.453,49.355c0.943,2.394-10.574,11.212,0.347,13.303   c8.371,1.603,5.643,5.252,5.508,13.456c-0.304,18.623-0.609,37.246-0.914,55.869c-0.032,1.994,5.813,5.292,7.208,6.421   c7.889,6.382,15.777,12.764,23.666,19.146c14.162,11.457,28.323,22.914,42.485,34.372c6.184,5.003,7.384,24.967,9.256,32.288   c6.263,24.482,15.946,50.163,19.025,75.273c0.276,2.253,0.913,17.836,2.604,18.231c6.896,1.608,13.792,3.218,20.688,4.826   c4.663,1.089,8.134,20.201,9.535,24.357c5.349,15.86,10.698,31.72,16.047,47.58c2.223,6.592,4.034,21.464,9.789,26.272   c6.683,5.584,25.079,1.762,32.663,1.719C372.411,561.927,385.273,561.854,398.135,561.781z"
       id="path12" /><path
       fill="#FFFFFF"
       stroke="#000000"
       stroke-width="2.5"
       stroke-linecap="round"
       stroke-linejoin="round"
       d="M577.948,73.156   c-7.092-5.258,14.775-16.836,18.685-19.724c7.774-5.744,15.549-11.487,23.323-17.23c2.306-1.704,8.677-8.366,11.992-7.952   c10.256,1.282,23.794,16.167,31.893,22.069c7.82,5.699,22.089,10.793,18.643,21.575c-5.142,16.09-10.284,32.181-15.427,48.271   c-0.937,2.932,1.102,11.248-3.233,12.803c-2.728,0.979-6.844-3.077-8.977-4.607C629.213,109.959,603.581,91.558,577.948,73.156z"
       id="path14" /><line
       fill="none"
       stroke="#000000"
       stroke-width="2"
       stroke-linejoin="round"
       x1="162.26"
       y1="188.281"
       x2="269.885"
       y2="105.219"
       id="line16" /><line
       fill="none"
       stroke="#000000"
       stroke-width="3"
       stroke-linecap="round"
       stroke-linejoin="round"
       x1="167.698"
       y1="202.719"
       x2="284.51"
       y2="111.594"
       id="line18" /><line
       fill="none"
       stroke="#000000"
       stroke-width="3"
       stroke-linejoin="round"
       x1="511.573"
       y1="112.531"
       x2="628.385"
       y2="203.094"
       id="line20" /><line
       fill="none"
       stroke="#000000"
       stroke-width="2"
       stroke-linejoin="round"
       x1="524.698"
       y1="105.781"
       x2="634.573"
       y2="189.219"
       id="line22" /><line
       fill="none"
       stroke="#000000"
       stroke-width="1.689"
       stroke-linejoin="round"
       x1="269.698"
       y1="437.281"
       x2="526.01"
       y2="437.281"
       id="line24" /><line
       fill="none"
       stroke="#000000"
       stroke-width="2"
       stroke-linecap="round"
       stroke-linejoin="round"
       x1="272.698"
       y1="457.156"
       x2="525.26"
       y2="457.156"
       id="line26" /><line
       fill="none"
       stroke="#000000"
       stroke-width="2"
       stroke-linejoin="round"
       x1="130.385"
       y1="123.594"
       x2="211.573"
       y2="64.719"
       id="line28" /><line
       fill="none"
       stroke="#000000"
       stroke-width="2"
       stroke-linecap="round"
       stroke-linejoin="round"
       x1="585.26"
       y1="64.156"
       x2="665.51"
       y2="122.281"
       id="line30" /><path
       fill="#A89187"
       stroke="#000000"
       stroke-width="1.689"
       stroke-linejoin="round"
       d="M140.51,116.281   c4.563-3.313,9.125-6.625,13.688-9.938C151.086,97.524,133.397,110.722,140.51,116.281z"
       id="path32" /><line
       fill="none"
       stroke="#000000"
       stroke-width="1.689"
       stroke-linejoin="round"
       x1="140.51"
       y1="109.719"
       x2="143.51"
       y2="113.656"
       id="line34" /><line
       fill="none"
       stroke="#000000"
       stroke-width="1.689"
       stroke-linejoin="round"
       x1="148.198"
       y1="104.281"
       x2="151.198"
       y2="107.844"
       id="line36" /><path
       fill="#A89187"
       stroke="#000000"
       stroke-width="1.689"
       stroke-linejoin="round"
       d="M187.948,81.594   c4.563-3.375,9.125-6.75,13.688-10.125c-0.452-1.216-2.339-3.719-3.375-4.5C193.764,70.389,180.736,75.751,187.948,81.594z"
       id="path38" /><line
       fill="none"
       stroke="#000000"
       stroke-width="1.689"
       stroke-linejoin="round"
       x1="187.948"
       y1="74.844"
       x2="190.948"
       y2="78.969"
       id="line40" /><line
       fill="none"
       stroke="#000000"
       stroke-width="1.689"
       stroke-linejoin="round"
       x1="195.823"
       y1="69.406"
       x2="199.01"
       y2="73.344"
       id="line42" /><path
       fill="#A89187"
       stroke="#000000"
       stroke-width="1.689"
       stroke-linejoin="round"
       d="M595.76,71.469   c4.563,3.375,9.125,6.75,13.688,10.125C616.625,75.761,599.155,63.078,595.76,71.469z"
       id="path44" /><line
       fill="none"
       stroke="#000000"
       stroke-width="1.689"
       stroke-linejoin="round"
       x1="601.76"
       y1="69.781"
       x2="599.135"
       y2="73.719"
       id="line46" /><line
       fill="none"
       stroke="#000000"
       stroke-width="1.689"
       stroke-linejoin="round"
       x1="609.823"
       y1="75.594"
       x2="606.635"
       y2="79.156"
       id="line48" /><path
       fill="#A89187"
       stroke="#000000"
       stroke-width="1.689"
       stroke-linejoin="round"
       d="M640.573,104.281   c4.625,3.375,9.25,6.75,13.875,10.125c1.072-0.879,2.928-3.562,3.375-4.875C653.082,106.264,643.939,95.549,640.573,104.281z"
       id="path50" /><line
       fill="none"
       stroke="#000000"
       stroke-width="1.689"
       stroke-linejoin="round"
       x1="646.385"
       y1="102.031"
       x2="643.76"
       y2="106.156"
       id="line52" /><line
       fill="none"
       stroke="#000000"
       stroke-width="1.689"
       stroke-linejoin="round"
       x1="654.635"
       y1="107.281"
       x2="652.01"
       y2="111.594"
       id="line54" /><path
       fill="#ADA5A7"
       stroke="#000000"
       stroke-width="3"
       stroke-linecap="round"
       stroke-linejoin="round"
       d="M252.823,188.656   c16.725-2.662,33.449-5.324,50.174-7.986c5.288-0.841,6.243-3.281,9.834-7.539c6.798-8.059,13.596-16.118,20.395-24.176   c5.243-6.216,22.959-2.486,30.421-2.486c22.133,0,44.266,0,66.398,0c5.363,0,30.006-3.587,33.753,0.685   c5.992,6.831,11.983,13.661,17.976,20.491c3.488,3.977,6.813,10.222,12.137,11.515c16.829,4.089,33.659,8.178,50.488,12.267   c6.293,1.529,22.833,26.13,13.598,31.705c-15.723,9.491-31.446,18.982-47.169,28.473c-7.604,4.59-10.833,17.764-12.938,26.397   c-9.134,37.477-18.268,74.954-27.401,112.431c-0.435,1.781-0.93,8.677-2.416,9.912c-2.532,2.105-15.786,0-18.955,0   c-16.994,0-33.988,0-50.982,0c-17.288,0-34.575,0-51.862,0c-15.468,0-14.45,1.513-18.611-12.86   c-11.688-40.369-21.262-82.101-35.777-121.553c-3.562-9.679-3.8-11.941-12.211-17c-11.551-6.947-23.102-13.895-34.653-20.842   c-10.233-6.155-9.517-6.535-10.524-18.961C234.121,204.497,249.407,192.351,252.823,188.656z"
       id="path56" /><path
       stroke="#A89187"
       stroke-width="1.689"
       stroke-linejoin="round"
       d="M119.135,61.156c-7.794-6.812,9.444-13.719,14.361-17.213   c4.813-3.42,19.085-18.92,23.326-9.975C144.26,43.031,131.698,52.094,119.135,61.156z"
       id="path58" /><path
       fill="#8A0000"
       stroke="#000000"
       stroke-width="2"
       stroke-linejoin="round"
       d="M106.573,168.406   c70.688-0.5,141.375-1,212.063-1.5c-5.36,4.12-14.455,14.682-21.058,15.685c-11.71,1.779-23.419,3.558-35.129,5.336   c-10.398,1.579-13.527,6.036-21.42,13.485c-5.118,4.831-7.326,2.875-14.309,1.538c-26.046-4.985-52.092-9.97-78.137-14.955   c-8.968-1.716-17.937-3.433-26.904-5.149C115.756,181.714,110.565,172.684,106.573,168.406z"
       id="path60" /><path
       fill="#85002A"
       stroke="#000000"
       stroke-width="2"
       stroke-linejoin="round"
       d="M473.323,160.156   c97.5-13.75,195-27.5,292.5-41.25c-0.63,2.071-3.896,17.069-5.316,17.259c-2.871,0.383-5.742,0.766-8.614,1.149   c-15.792,2.107-31.584,4.214-47.376,6.32c-31.843,4.249-63.687,8.497-95.53,12.746c-8.957,1.195-19.593,10.511-27.276,14.908   c-8.274,4.735-16.549,9.471-24.822,14.206c-1.829,1.046-8.437,6.379-10.624,5.938c-15.612-3.156-31.225-6.312-46.837-9.467   C488.249,179.705,481.131,168.11,473.323,160.156z"
       id="path62" /><path
       fill="#A89187"
       stroke="#000000"
       stroke-width="3"
       stroke-linejoin="round"
       d="M738.26,65.094   c3.563,4.313,7.125,8.625,10.688,12.938C633.69,156.177,518.432,234.322,403.175,312.468c-12.165,8.248-24.33,16.496-36.495,24.743   c-11.188,7.586-8.994,6.204-17.857-6.242c115.109-78.587,230.218-157.173,345.327-235.76   C708.853,85.17,723.557,75.132,738.26,65.094z"
       id="path64" /><path
       fill="#A89187"
       stroke="#000000"
       stroke-width="3"
       stroke-linejoin="round"
       d="M821.135,172.719   c3.75,4.125,7.5,8.25,11.25,12.375c-108.967,87.346-217.934,174.692-326.9,262.039c-13.763,11.032-27.524,22.063-41.287,33.096   c-2.92,2.341-5.841,4.682-8.761,7.022c-2.786,2.233-11.293-9.398-13.614-11.72c108.946-86.974,217.893-173.948,326.84-260.922   C786.153,200.646,803.644,186.682,821.135,172.719z"
       id="path66" /><path
       fill="#A89187"
       stroke="#000000"
       stroke-width="3"
       stroke-linejoin="round"
       d="M350.885,480.781   c-7.761,8.181-6.191,7.922-13.938,1.597c-9.124-7.449-18.249-14.898-27.373-22.349c-31.188-25.463-62.376-50.926-93.564-76.39   C159.202,337.26,102.395,290.881,45.588,244.5c-1.672-1.365-3.343-2.729-5.015-4.094c7.791-8.001,6.246-7.689,13.938-1.414   c9.124,7.444,18.249,14.888,27.373,22.332c31.188,25.443,62.376,50.888,93.564,76.332   c56.808,46.345,113.615,92.689,170.422,139.034C347.542,478.054,349.213,479.418,350.885,480.781z"
       id="path68" /><path
       fill="#A89187"
       stroke="#000000"
       stroke-width="3"
       stroke-linecap="round"
       stroke-linejoin="round"
       d="M429.26,319.531   c-1.813,3.688-3.625,7.375-5.438,11.063c-55.418-28.331-110.836-56.661-166.254-84.992c-36.325-18.57-72.649-37.14-108.974-55.709   c-11.227-5.739-22.454-11.479-33.681-17.218c-8.793-4.495-8.658-3.452-9.278-14.206C213.51,212.156,321.385,265.844,429.26,319.531   z"
       id="path70" /><path
       d="M261.26,5.844c67.756,0,135.511,0,203.267,0c15.796,0,31.591,0,47.386,0c11.225,0,28.765-3.502,32.609,10.869   c2.404,8.988,0.454,19.51,0.5,28.732c0.067,13.602-4.636,19.819-18.508,21.15c-30.992,2.973-63.077-0.563-94.203-0.563   c-35.438,0-70.876,0-106.313,0c-16.42,0-32.841,0-49.261,0c-11.178,0-27.704,3.285-30.093-11.77   C244.435,40.344,240.505,6.022,261.26,5.844C330.847,5.844,260.354,5.852,261.26,5.844z"
       id="path72" /><path
       stroke="#FFFFFF"
       stroke-width="3"
       stroke-linecap="round"
       stroke-linejoin="round"
       d="M363.26,12.156   c15.603,0,31.205,0,46.807,0c11.08,0,25.358-2.519,34.568,5.25c18.517,15.618,4.059,41.372-16.78,43.336   c-14.889,1.403-29.812-0.586-44.712-0.586c-11.563,0-25.494,2.853-34.946-5.706C332.879,40.583,342.526,12.87,363.26,12.156   C380.596,12.156,361.331,12.223,363.26,12.156z"
       id="path74" /><path
       stroke="#FFFFFF"
       stroke-width="3"
       stroke-linecap="round"
       stroke-linejoin="round"
       d="M440.323,38.469   c-3.437-18.742-84.665-17.631-84.75,0C355.488,55.89,437.144,57.241,440.323,38.469z"
       id="path76" /><path
       fill="#A89187"
       stroke="#000000"
       stroke-width="2"
       stroke-linecap="round"
       stroke-linejoin="round"
       d="M360.823,101.844   c20.063,0,40.125,0,60.188,0c7.326,0,13.492,3.021,14.004-4.904c0.238-3.698-6.377-19.188-4.787-19.43   c6.589-0.998,5.221-1.911,5.221-8.519c0-2.204-9.366-3.638-11.389-4.23c-8.251-2.415-17.482-1.167-26.018-1.167   c-8.523,0-51.067-0.588-30.469,17.813c-4.447,2.857-0.309,4.441-0.938,7.5c-0.842,4.097,2.798,2.975-2.438,5.156   C360.433,95.631,359.838,97.405,360.823,101.844z"
       id="path78" /><line
       fill="none"
       stroke="#000000"
       stroke-width="2"
       stroke-linecap="round"
       stroke-linejoin="round"
       x1="363.448"
       y1="76.344"
       x2="435.448"
       y2="76.344"
       id="line80" /><path
       fill="#A89187"
       stroke="#000000"
       stroke-width="2"
       stroke-linecap="round"
       stroke-linejoin="round"
       d="M93.073,257.469   c0.125,6.313,0.25,12.625,0.375,18.938c6-9.438,12-18.875,18-28.313c2.563,5.875,5.125,11.75,7.688,17.625   c2.125-11.188,4.25-22.375,6.375-33.563c4.375,4.563,8.75,9.125,13.125,13.688c-2.125-10.625-4.25-21.25-6.375-31.875   c5.813,1.938,11.625,3.875,17.438,5.813c-6.438-10.25-12.875-20.5-19.313-30.75c6.438,0.5,12.875,1,19.313,1.5   c-9.688-6.75-19.375-13.5-29.063-20.25c6-1.813,12-3.625,18-5.438c-10.813-2.563-21.625-5.125-32.438-7.688   c4.313-4.063,8.625-8.125,12.938-12.188c-9.875,2-19.75,4-29.625,6c2-5.563,4-11.125,6-16.688   c-8.375,5.563-16.75,11.125-25.125,16.688c-1.063-5.375-2.125-10.75-3.188-16.125c-5.563,7.938-11.125,15.875-16.688,23.813   c-3-4.75-6-9.5-9-14.25c-1.875,9.125-3.75,18.25-5.625,27.375c-5.5-2.313-11-4.625-16.5-6.938c2.375,9.5,4.75,19,7.125,28.5   c-6.063-0.938-12.125-1.875-18.188-2.813c6.25,9.188,12.5,18.375,18.75,27.563c-6.25,0.563-12.5,1.125-18.75,1.688   c9.688,6.375,19.375,12.75,29.063,19.125c-6,2.313-12,4.625-18,6.938c11.813,2.375,23.625,4.75,35.438,7.125   c-5.313,4.25-10.625,8.5-15.938,12.75c11.125-2.313,22.25-4.625,33.375-6.938c-2.625,5.875-5.25,11.75-7.875,17.625   C73.948,270.094,83.51,263.781,93.073,257.469z"
       id="path82" /><path
       stroke="#000000"
       stroke-width="1.689"
       stroke-linejoin="round"
       d="M79.385,258.781c29.362,0.906,53.657-26.099,53.438-54.563   c-0.224-29.061-24.168-53.765-53.438-53.813c-29.213-0.047-53.588,24.731-53.813,53.813   C25.343,234.054,50.073,257.951,79.385,258.781z"
       id="path84" /><path
       stroke="#A89187"
       stroke-width="3"
       stroke-linejoin="round"
       d="M79.385,239.656c44.67-0.621,44.83-69.83,0-69.938   C34.35,169.611,34.494,238.364,79.385,239.656z"
       id="path86" /><path
       fill="#A89187"
       stroke="#A89187"
       stroke-width="1.689"
       stroke-linejoin="round"
       d="M79.948,222.031   c21.698-0.271,21.691-33.948,0-34.313C58.291,187.354,57.94,221.54,79.948,222.031z"
       id="path88" /><path
       stroke="#A89187"
       stroke-width="1.689"
       stroke-linejoin="round"
       d="M852.26,137.844   C850.512,73.162,780.37,34.198,724.79,67.883c-56.814,34.433-46.936,118.917,10.6,145.992   C790.285,239.708,850.776,195.735,852.26,137.844z"
       id="path90" /><path
       stroke="#A89187"
       stroke-width="3"
       stroke-linecap="round"
       stroke-linejoin="round"
       d="M768.26,176.469   c51.25-1.132,51.377-79.976,0-79.875C716.976,96.694,717.877,173.08,768.26,176.469z"
       id="path92" /><path
       fill="#A89187"
       stroke="#000000"
       stroke-width="3"
       stroke-linecap="round"
       stroke-linejoin="round"
       d="M785.885,135.219   c0.661-21.649-33.375-21.894-33.375-0.188C752.51,156.477,786.069,156.597,785.885,135.219z"
       id="path94" /><line
       fill="none"
       stroke="#000000"
       stroke-width="1.689"
       stroke-linejoin="round"
       x1="293.51"
       y1="462.406"
       x2="501.073"
       y2="462.406"
       id="line96" /><path
       stroke="#000000"
       stroke-width="1.689"
       stroke-linejoin="round"
       d="M398.323,510.031   c27.608,1.117,54.876-12.676,73.031-32.906c19.535-21.768,25.594-47.582,25.594-76.031c0-25.597-17.851-54.856-37.806-69.944   c-23.171-17.52-49.587-23.763-78.215-19.833c-52.088,7.148-83.215,58.546-81.465,107.541   C301.34,471.452,349.616,507.375,398.323,510.031z"
       id="path98" /><path
       stroke="#A89187"
       stroke-width="3"
       stroke-linejoin="round"
       d="M397.385,486.781c58.366,0.937,92.229-64.353,67.476-113.86   c-27.415-54.831-103.023-52.434-133.59-2.946C299.993,420.615,340.217,485.42,397.385,486.781z"
       id="path100" /><path
       fill="#A89187"
       stroke="#000000"
       stroke-width="1.689"
       stroke-linejoin="round"
       d="M398.323,438.781   c35.356,0.502,35.557-55.878,0-55.875C362.633,382.909,362.683,438.434,398.323,438.781z"
       id="path102" /><path
       fill="#A89187"
       stroke="#000000"
       stroke-width="1.689"
       stroke-linejoin="round"
       d="M370.01,374.281   c13.833-0.907,14.238-22.289,0-22.313C355.846,351.945,356.07,373.575,370.01,374.281z"
       id="path104" /><path
       fill="#A89187"
       stroke="#000000"
       stroke-width="1.689"
       stroke-linejoin="round"
       d="M346.948,433.344   c13.404-2.229,14.963-22.531,0-22.313C332.388,411.244,333.692,431.223,346.948,433.344z"
       id="path106" /><path
       fill="#A89187"
       stroke="#000000"
       stroke-width="1.689"
       stroke-linejoin="round"
       d="M396.635,475.531   c13.889-0.913,13.97-22.203,0-22.313C382.5,453.108,382.604,474.608,396.635,475.531z"
       id="path108" /><path
       fill="#A89187"
       stroke="#000000"
       stroke-width="1.689"
       stroke-linejoin="round"
       d="M450.073,434.844   c14.078,0.326,14.005-21.732,0-21.938C435.935,412.699,435.904,435.623,450.073,434.844z"
       id="path110" /><path
       fill="#A89187"
       stroke="#000000"
       stroke-width="1.689"
       stroke-linejoin="round"
       d="M431.698,378.969   c14.187,0.615,14.184-22.369,0-22.125C417.985,357.08,417.989,379.267,431.698,378.969z"
       id="path112" /><line
       fill="none"
       stroke="#A89187"
       stroke-width="1.689"
       stroke-linejoin="round"
       x1="361.76"
       y1="96.031"
       x2="433.948"
       y2="96.031"
       id="line114" /><path
       stroke="#A89187"
       stroke-width="3"
       stroke-linecap="round"
       stroke-linejoin="round"
       d="M409.76,195.406   c-26.813-9.141-9.623-44.887-4.818-63.766c3.336-13.107,6.672-26.215,10.008-39.323c3.245-12.751,17.229-3.38,23.294,0.276   c6.836,4.122,30.184,12.77,31.142,21.812c0.774,7.31-10.771,23.173-13.65,29.276c-6.584,13.958-13.169,27.917-19.753,41.876   c-1.826,3.873-4.829,5.072-8.493,7.502C418.928,198.736,419.022,199.827,409.76,195.406z"
       id="path116" /><path
       stroke="#A89187"
       stroke-width="3"
       stroke-linecap="round"
       stroke-linejoin="round"
       d="M438.073,101.281   c9.875,0.421,3.835,11.161,1.922,16.869c-2.834,8.457-5.23,17.235-8.562,25.51c-3.623,9-7.246,18-10.868,26.999   c-2.467,6.129-4.266,16.327-10.242,20.247c-1.812-5.932,1.98-13.268,3.563-18.84c2.91-10.247,5.82-20.493,8.73-30.74   C425.994,129.434,429.187,110.29,438.073,101.281z"
       id="path118" /><path
       stroke="#A89187"
       stroke-width="3"
       stroke-linecap="round"
       stroke-linejoin="round"
       d="M443.323,231.406   c0-28.966,41.363-22.54,60.512-23.26c13.049-0.491,26.098-0.981,39.146-1.472c12.578-0.473,7.215,16.242,5.697,22.646   c-1.826,7.712-3.017,33.03-11.418,36.399c-1.787,0.717-8.244-1.167-10.168-1.463c-7.448-1.146-14.896-2.292-22.344-3.438   c-15.115-2.326-30.23-4.651-45.346-6.976c-4.362-0.671-7.742-4.958-11.07-7.659C441.08,240.295,441.456,240.558,443.323,231.406z"
       id="path120" /><path
       stroke="#A89187"
       stroke-width="3"
       stroke-linecap="round"
       stroke-linejoin="round"
       d="M540.635,231.406   c2.373,12.967-34.494,6.902-42.204,6.168c-9.61-0.915-19.22-1.831-28.83-2.746c-6.383-0.608-16.719,0.597-21.966-3.985   c5.355-3.875,14.035-2.139,20.152-2.186c10.13-0.08,20.261-0.159,30.391-0.238C510.682,228.322,529.331,225.439,540.635,231.406z"
       id="path122" /><path
       stroke="#A89187"
       stroke-width="3"
       stroke-linecap="round"
       stroke-linejoin="round"
       d="M418.198,277.719   c7.474-4.557,7.583-4.728,15.626-1.609c3.645,1.413,9.231,2.132,11.41,5.593c7.765,12.333,15.528,24.667,23.292,37   c7.016,11.144,14.031,22.287,21.046,33.431c6.742,10.71-9.812,14.381-16.182,16.332c-7.637,2.34-29.876,14.057-37.005,8.254   c-1.418-1.154-3.051-7.775-3.771-9.604c-2.67-6.781-5.34-13.563-8.01-20.345c-5.644-14.335-11.287-28.67-16.931-43.005   c-1.583-4.02-0.412-7.174,0.276-11.544C409.559,281.997,408.486,281.172,418.198,277.719z"
       id="path124" /><path
       stroke="#A89187"
       stroke-width="3"
       stroke-linecap="round"
       stroke-linejoin="round"
       d="M467.135,362.656   c-9.078,8.611-22.974-27.615-25.961-34.125c-4.042-8.809-8.085-17.618-12.127-26.427c-2.69-5.862-8.848-14.142-7.662-21.011   c5.619,2.532,8.328,10.488,11.232,15.396c5.204,8.791,10.408,17.582,15.611,26.373C454.565,333.567,467.35,349.978,467.135,362.656   z"
       id="path126" /><path
       stroke="#A89187"
       stroke-width="3"
       stroke-linecap="round"
       stroke-linejoin="round"
       d="M356.51,220.156   c14.48-24.554-24.13-40.649-39.997-51.228c-10.913-7.275-21.825-14.55-32.738-21.825c-11.289-7.526-15.41,12.011-17.39,18.226   c-1.65,5.179-14.85,32.695-7.007,35.764c10.417,4.076,20.69,8.536,31.016,12.836c13.688,5.701,27.376,11.401,41.064,17.102   c3.954,1.646,8.979-0.266,13.09-0.848C353.663,228.894,353.208,228.78,356.51,220.156z"
       id="path128" /><path
       stroke="#A89187"
       stroke-width="3"
       stroke-linecap="round"
       stroke-linejoin="round"
       d="M272.885,169.344   c-8.851,9.396,26.26,24.156,32.998,27.466c8.694,4.271,17.389,8.542,26.083,12.813c5.683,2.792,14.363,9.761,21.169,7.721   c-2.714-5.817-10.91-8.863-15.988-12.039c-8.666-5.421-17.332-10.843-25.999-16.264C300.359,182.291,285.7,170.967,272.885,169.344   z"
       id="path130" /><path
       stroke="#A89187"
       stroke-width="3"
       stroke-linecap="round"
       stroke-linejoin="round"
       d="M365.323,272.844   c-18.181-22.569-45.634,11.07-59.776,22.972c-10.018,8.43-20.035,16.859-30.053,25.289c-10.483,8.821,6.803,17.827,12.489,21.815   c4.21,2.954,26.229,23.291,31.333,17.459c7.296-8.339,14.12-17.114,21.132-25.69c9.44-11.546,18.88-23.092,28.32-34.638   c2.751-3.365,2.329-8.855,2.946-13.021C373.086,277.769,372.97,278.252,365.323,272.844z"
       id="path132" /><path
       stroke="#A89187"
       stroke-width="3"
       stroke-linecap="round"
       stroke-linejoin="round"
       d="M293.51,337.906   c6.461,10.912,30.051-18.177,35.202-23.776c6.559-7.132,13.118-14.263,19.677-21.394c4.218-4.586,12.879-10.681,13.558-17.455   c-6.415,0.1-11.869,7.667-16.192,11.518c-7.598,6.767-15.195,13.533-22.793,20.301C313.965,315.112,297.297,326.15,293.51,337.906z   "
       id="path134" /><path
       stroke="#A89187"
       stroke-width="1.689"
       stroke-linejoin="round"
       d="M370.573,276.781   c22.662,13.869,50.931,6.584,66.021-14.542c16.318-22.845,6.331-51.727-13.625-67.882c-21.226-17.182-54.692-6.301-67.771,15.111   C341.289,232.239,348.089,262.15,370.573,276.781z"
       id="path136" /><path
       stroke="#A89187"
       stroke-width="1.689"
       stroke-linejoin="round"
       d="M377.885,265.531   c40.216,22.98,76.138-36.531,36.938-61.031C376.167,180.34,341.503,239.431,377.885,265.531z"
       id="path138" /><path
       fill="#A89187"
       stroke="#A89187"
       stroke-width="1.689"
       stroke-linejoin="round"
       d="M390.448,247.719   c15.364,8.916,29.606-14.335,14.625-23.625C389.703,214.563,375.002,238.208,390.448,247.719z"
       id="path140" /><circle
       fill="none"
       stroke="#A89187"
       stroke-width="3"
       stroke-linecap="round"
       stroke-linejoin="round"
       cx="768.958"
       cy="137.667"
       r="63.333"
       id="circle142" /><path
       fill="#FF6700"
       d="M674.479,362.652c3.929,5.315,4.61,11.476,1.521,13.759l-44.745,33.065   c-3.088,2.282-8.777-0.178-12.706-5.492l-56.908-77.008l55.932-41.334L674.479,362.652z"
       id="path144" /></g></svg>